# xmcd
#
# Track frame offsets:
#	150
#	23200
#	36355
#	53094
#	80971
#	98826
#	109551
#	126916
#	142185
#
# Disc length: 2046 seconds
#
# Revision: 1
# Processed by: cddbd v1.5.1PL2 Copyright (c) Steve Scherf et al.
# Submitted via: audiograbber 1.83.01
#
DISCID=7d07fc09
DTITLE=Rusty Wier - Belt Buckle
DYEAR=1975
DGENRE=Country Rock
TTITLE0=Fly Away
TTITLE1=I Don't Want To Lay This Guitar Down
TTITLE2=Sophia
TTITLE3=Seminole Jail/Queen Of My Dreams
TTITLE4=Listen To My Song/Just One More Time 
TTITLE5=Basic Lady
TTITLE6=Long  And Lonsome Blues 
TTITLE7=Dixie Lynn 
TTITLE8=Pass The Buck 
EXTD=
EXTT0=
EXTT1=
EXTT2=
EXTT3=
EXTT4=
EXTT5=
EXTT6=
EXTT7=
EXTT8=
PLAYORDER=
